<svg xmlns="http://www.w3.org/2000/svg" viewBox="0 0 800 1000" width="800" height="1000" role="presentation"><rect width="800" height="1000" fill="#f7dfe2"/><ellipse cx="400" cy="920" rx="300" ry="200" fill="#c9a227" opacity="0.10"/><path d="M400 250c-135 0-215 105-215 245 0 190 62 330 100 425h230c38-95 100-235 100-425 0-140-80-245-215-245z" fill="#5a3c2a"/><ellipse cx="400" cy="360" rx="104" ry="126" fill="#e8c4a6"/><path d="M400 236c-108 0-170 72-170 158 0 36 10 63 21 77 9-63 54-108 149-108s140 45 149 108c11-14 21-41 21-77 0-86-62-158-170-158z" fill="#3b2a21" opacity="0.8"/><rect x="296" y="470" width="208" height="300" rx="104" fill="#fffcf9" opacity="0.9"/><text x="400" y="958" font-family="Georgia, serif" font-size="30" fill="#574438" text-anchor="middle">Depois: cabelo alinhado e brilhante</text></svg>
